<svg width="16" height="16" viewBox="0 0 16 16" fill="none" xmlns="http://www.w3.org/2000/svg">
<path fill-rule="evenodd" clip-rule="evenodd" d="M4.97663 0.710687C5.75863 0.674687 6.00796 0.666687 7.99996 0.666687C9.99196 0.666687 10.2413 0.675354 11.0226 0.710687C11.804 0.74602 12.3373 0.870687 12.804 1.05135C13.2926 1.23602 13.736 1.52469 14.1026 1.89802C14.476 2.26402 14.764 2.70669 14.948 3.19602C15.1293 3.66269 15.2533 4.19602 15.2893 4.97602C15.3253 5.75935 15.3333 6.00869 15.3333 8.00002C15.3333 9.99202 15.3246 10.2414 15.2893 11.0234C15.254 11.8034 15.1293 12.3367 14.948 12.8034C14.764 13.2927 14.4755 13.7362 14.1026 14.1027C13.736 14.476 13.2926 14.764 12.804 14.948C12.3373 15.1294 11.804 15.2534 11.024 15.2894C10.2413 15.3254 9.99196 15.3334 7.99996 15.3334C6.00796 15.3334 5.75863 15.3247 4.97663 15.2894C4.19663 15.254 3.66329 15.1294 3.19663 14.948C2.70724 14.764 2.26384 14.4755 1.89729 14.1027C1.52421 13.7365 1.2355 13.2933 1.05129 12.804C0.870626 12.3374 0.746626 11.804 0.710626 11.024C0.674626 10.2407 0.666626 9.99135 0.666626 8.00002C0.666626 6.00802 0.675293 5.75869 0.710626 4.97735C0.745959 4.19602 0.870626 3.66269 1.05129 3.19602C1.23577 2.70674 1.52471 2.26356 1.89796 1.89735C2.26399 1.52435 2.70694 1.23565 3.19596 1.05135C3.66263 0.870687 4.19596 0.746687 4.97596 0.710687H4.97663ZM10.9633 2.03069C10.19 1.99535 9.95796 1.98802 7.99996 1.98802C6.04196 1.98802 5.80996 1.99535 5.03663 2.03069C4.32129 2.06335 3.93329 2.18269 3.67463 2.28335C3.33263 2.41669 3.08796 2.57469 2.83129 2.83135C2.58799 3.06805 2.40075 3.35621 2.28329 3.67469C2.18263 3.93335 2.06329 4.32135 2.03063 5.03669C1.99529 5.81002 1.98796 6.04202 1.98796 8.00002C1.98796 9.95802 1.99529 10.19 2.03063 10.9634C2.06329 11.6787 2.18263 12.0667 2.28329 12.3254C2.40063 12.6434 2.58796 12.932 2.83129 13.1687C3.06796 13.412 3.35663 13.5994 3.67463 13.7167C3.93329 13.8174 4.32129 13.9367 5.03663 13.9694C5.80996 14.0047 6.04129 14.012 7.99996 14.012C9.95863 14.012 10.19 14.0047 10.9633 13.9694C11.6786 13.9367 12.0666 13.8174 12.3253 13.7167C12.6673 13.5834 12.912 13.4254 13.1686 13.1687C13.412 12.932 13.5993 12.6434 13.7166 12.3254C13.8173 12.0667 13.9366 11.6787 13.9693 10.9634C14.0046 10.19 14.012 9.95802 14.012 8.00002C14.012 6.04202 14.0046 5.81002 13.9693 5.03669C13.9366 4.32135 13.8173 3.93335 13.7166 3.67469C13.5833 3.33269 13.4253 3.08802 13.1686 2.83135C12.9319 2.58807 12.6438 2.40083 12.3253 2.28335C12.0666 2.18269 11.6786 2.06335 10.9633 2.03069V2.03069ZM7.06329 10.2607C7.5864 10.4784 8.16888 10.5078 8.71124 10.3438C9.25361 10.1798 9.72222 9.83263 10.037 9.36152C10.3518 8.8904 10.4933 8.3246 10.4373 7.76076C10.3813 7.19691 10.1313 6.67 9.72996 6.27002C9.47412 6.01434 9.16477 5.81856 8.82418 5.69678C8.48359 5.57501 8.12024 5.53026 7.76029 5.56576C7.40033 5.60127 7.05273 5.71614 6.74249 5.90211C6.43226 6.08808 6.16712 6.34052 5.96616 6.64125C5.7652 6.94199 5.63342 7.28355 5.5803 7.64133C5.52719 7.99911 5.55406 8.36422 5.65899 8.71036C5.76391 9.05651 5.94428 9.37509 6.18711 9.64317C6.42993 9.91124 6.72918 10.1221 7.06329 10.2607ZM5.33463 5.33469C5.68464 4.98467 6.10017 4.70702 6.55749 4.51759C7.01481 4.32817 7.50496 4.23067 7.99996 4.23067C8.49496 4.23067 8.98511 4.32817 9.44243 4.51759C9.89975 4.70702 10.3153 4.98467 10.6653 5.33469C11.0153 5.6847 11.293 6.10023 11.4824 6.55755C11.6718 7.01487 11.7693 7.50502 11.7693 8.00002C11.7693 8.49502 11.6718 8.98517 11.4824 9.44249C11.293 9.89981 11.0153 10.3153 10.6653 10.6654C9.9584 11.3722 8.99965 11.7694 7.99996 11.7694C7.00026 11.7694 6.04152 11.3722 5.33463 10.6654C4.62774 9.95846 4.23061 8.99971 4.23061 8.00002C4.23061 7.00033 4.62774 6.04158 5.33463 5.33469V5.33469ZM12.6053 4.79202C12.692 4.7102 12.7615 4.61181 12.8095 4.50267C12.8575 4.39353 12.8832 4.27587 12.8849 4.15664C12.8866 4.03741 12.8644 3.91905 12.8196 3.80856C12.7748 3.69807 12.7082 3.59769 12.6239 3.51338C12.5396 3.42907 12.4392 3.36253 12.3288 3.3177C12.2183 3.27287 12.0999 3.25067 11.9807 3.25241C11.8614 3.25415 11.7438 3.27979 11.6346 3.32782C11.5255 3.37585 11.4271 3.44528 11.3453 3.53202C11.1862 3.70071 11.099 3.92477 11.1024 4.15664C11.1058 4.38851 11.1994 4.60994 11.3634 4.77392C11.5274 4.93789 11.7488 5.03151 11.9807 5.03489C12.2125 5.03827 12.4366 4.95115 12.6053 4.79202V4.79202Z" fill="black"/>
</svg>
